<svg width="50" height="50" viewBox="0 0 50 50" fill="none" xmlns="http://www.w3.org/2000/svg">
<rect width="50" height="50" rx="11" fill="#E8E8E8"/>
<path d="M22.6858 14.2896C22.3861 15.4205 20.6881 17.287 19.6144 18.381C19.0937 18.9133 18.719 19.2644 18.719 19.2644C18.719 19.2644 18.719 19.2607 18.7154 19.257C18.6868 19.2201 18.5442 19.0279 18.3159 18.7396C17.6882 17.9376 16.4004 16.3963 15.0983 15.4058C14.4848 14.94 14.6596 14.175 15.1625 13.3656V13.3618C16.1542 11.7577 18.4265 9.97266 18.4265 9.97266C18.4265 9.97266 19.9211 12.4896 22.3503 13.4136C22.7214 13.5542 22.8 13.8719 22.6858 14.2896Z" fill="#FCD0AE"/>
<path d="M28.557 24.5346C28.557 24.5346 27.9257 25.0928 27.5012 25.2369C27.0803 25.3809 26.3419 25.2738 24.9543 24.653C23.5668 24.0357 21.9258 22.125 21.9258 22.125C21.9258 22.125 21.9864 22.0954 22.0792 22.0473C22.0792 22.0473 22.0792 22.0473 22.0828 22.0473C22.3931 21.8883 23.0709 21.5557 23.1815 21.5447C23.2279 21.5409 23.4347 21.6259 23.7022 21.7443C23.588 21.8885 23.5668 21.9957 23.5668 21.9957C23.5668 21.9957 24.6618 23.4149 26.4347 24.0728C26.9376 24.2612 27.3551 24.3759 27.7046 24.4424C27.776 24.4571 27.8472 24.4683 27.9151 24.4793C28.1647 24.5199 28.3788 24.5346 28.557 24.5346Z" fill="#FCD0AE"/>
<path d="M29.8911 23.5738C29.8911 24.0211 29.6807 24.4351 29.2954 24.472C29.1278 24.4867 28.9031 24.5385 28.557 24.5348C28.1039 24.5348 27.4405 24.4461 26.4345 24.0728C24.9934 23.5369 24.0017 22.502 23.6806 22.1324C23.6058 22.0437 23.5664 21.9956 23.5664 21.9956C23.5664 21.9956 23.5878 21.8885 23.7018 21.7442C23.7519 21.6814 23.8161 21.6149 23.9123 21.5446C24.219 21.3118 24.954 21.2526 24.954 21.2526C24.954 21.2526 25.992 22.4686 27.4332 22.9786C28.0753 23.2078 28.6889 23.3703 29.199 23.4702C29.4596 23.5222 29.6951 23.5554 29.8911 23.5738Z" fill="#FCD0AE"/>
<path d="M31.0516 22.8715C31.016 23.0896 30.8055 23.4517 30.4914 23.5626C30.388 23.5995 30.1776 23.6032 29.8921 23.5738C29.3071 23.5182 28.4011 23.3224 27.4343 22.9787C27.3701 22.9565 27.3059 22.9306 27.2416 22.9047C26.6923 22.6829 26.2072 22.3614 25.8255 22.0657C25.8149 22.0545 25.8005 22.0435 25.7899 22.036C25.2691 21.6184 24.9551 21.2525 24.9551 21.2525C24.9551 21.2525 24.9729 20.8682 25.326 20.2841C25.3368 20.2694 25.3438 20.2545 25.3546 20.2398C25.5508 19.9293 25.7683 19.7334 25.9253 19.6188C25.9787 19.7 26.0215 19.7481 26.0215 19.7481C27.6804 21.3669 29.0893 21.9546 29.9383 22.1691C30.4876 22.3059 30.8051 22.2874 30.8051 22.2874C30.8051 22.2874 31.0874 22.6535 31.0516 22.8715Z" fill="#FCD0AE"/>
<path d="M31.2287 21.4153C31.2323 21.456 31.2287 21.4966 31.2179 21.541C31.1536 21.8662 30.8041 22.2876 30.8041 22.2876C30.8041 22.2876 30.4261 22.3097 29.7803 22.1248C29.602 22.0693 29.4128 22.0065 29.206 21.9327C28.3748 21.6 27.2691 20.9643 26.0206 19.7484C26.0206 19.7484 26.0134 19.741 26.0028 19.7262C25.985 19.7041 25.9564 19.6672 25.9243 19.6191C25.8529 19.5157 25.7567 19.3492 25.6961 19.1312C25.6533 18.9906 25.6319 18.8281 25.6391 18.647C25.6641 18.1812 25.8459 17.6491 25.9493 17.3793C25.9922 17.2721 26.0206 17.2056 26.0206 17.2056C26.0278 17.213 26.0314 17.2168 26.0348 17.2203C26.131 17.3127 26.6377 17.8042 27.3403 18.3993C27.3439 18.4067 27.3511 18.4103 27.3545 18.4103C27.8182 18.802 28.3712 19.2381 28.9419 19.6299C30.4901 20.687 30.911 20.831 30.911 20.831C30.911 20.831 31.193 21.0864 31.2287 21.4153Z" fill="#FCD0AE"/>
<path d="M26.0034 19.7264C25.8714 19.9592 25.7179 20.1994 25.5433 20.4546C25.3328 20.7539 25.0974 21.0756 24.8335 21.4155C23.5672 23.0528 22.3009 22.3617 21.7051 21.9959C21.1094 21.6336 19.7718 20.3955 18.7194 19.2646C18.7194 19.2646 18.7194 19.2609 18.7158 19.2571C18.5482 19.0797 18.4161 18.906 18.3163 18.7398C17.8062 17.8897 18.0808 17.1394 18.3377 16.0713C18.3485 16.0344 18.3555 15.9938 18.3663 15.953C18.6838 14.6075 19.9823 13.2217 21.0382 13.5135C21.0382 13.5135 21.0988 13.532 21.2058 13.5726C21.4947 13.676 22.1082 13.92 22.6862 14.2896C22.7326 14.3192 22.779 14.3487 22.8218 14.3783C22.861 14.4042 22.8966 14.4338 22.936 14.4595C23.5174 14.8882 24.6018 15.6792 25.4008 16.4888H25.4044C25.6435 16.7327 25.8575 16.973 26.0216 17.2057C26.0288 17.2132 26.0324 17.2169 26.0358 17.2205C26.1142 17.3351 26.182 17.446 26.239 17.5531C26.2498 17.5716 26.2568 17.5938 26.264 17.6122C26.5741 18.2701 26.4387 18.9392 26.0034 19.7264Z" fill="#FCD0AE"/>
<path d="M25.9573 15.4057C25.8503 15.3688 25.4044 16.4887 25.4044 16.4887H25.4008L23.2035 15.7015L20.8955 14.8773L21.2058 13.5727L21.213 13.5506C21.213 13.5506 22.5827 13.3325 23.3569 13.1514C23.7956 13.0479 24.0989 12.9629 24.4342 13.0257C24.6874 13.0738 24.9585 13.2069 25.326 13.4728C26.1678 14.0976 26.5531 14.3525 26.8706 14.6075C27.188 14.8624 26.0644 15.4428 25.9573 15.4057Z" fill="#FCD0AE"/>
<path d="M23.0616 21.9305C23.4357 21.9823 24.0345 22.2148 24.0345 22.2148C24.0345 22.2148 23.8348 21.8013 24.2342 21.4135C24.5545 21.1024 24.9508 21.124 25.0964 21.1448C25.1044 21.1342 25.1129 21.1232 25.1207 21.1126C25.0419 21.0143 24.8795 20.7501 25.1572 20.4828C25.2834 20.3613 25.3828 20.2404 25.4592 20.1348C25.4041 20.091 25.0779 19.6367 25.1072 19.7589C25.157 19.9658 24.9951 20.4333 24.6831 20.5344C24.4708 20.704 24.0843 20.3793 24.0843 20.3793C24.0843 20.3793 24.2092 21.0514 23.8098 21.1807C23.4107 21.3099 22.8868 21.0257 22.8868 21.0257C22.8868 21.0257 23.0864 21.4392 22.7621 21.4392C22.4378 21.4392 21.9139 21.4651 21.8889 20.9738C21.8813 20.8233 21.9148 20.6478 21.9758 20.4681C21.0848 20.2027 20.2443 19.3432 19.6142 18.4583C19.1505 17.8116 18.7974 17.1537 18.619 16.7101C18.5406 16.5179 18.4478 16.3295 18.3371 16.1484C17.8128 15.2909 16.9174 14.5184 15.5763 13.3209C15.5763 13.3209 15.405 13.3578 15.1625 13.4393V13.443C14.6596 14.2524 14.4848 15.0175 15.0983 15.4832C16.4003 16.4738 17.6882 18.0149 18.3159 18.817C18.4157 18.9833 18.5478 19.157 18.7154 19.3344C18.719 19.3381 18.719 19.3419 18.719 19.3419C19.7713 20.4728 21.109 21.711 21.7048 22.0731C21.9514 22.2247 22.3143 22.43 22.7434 22.5045C22.7146 22.0692 22.7438 21.8867 23.0616 21.9305Z" fill="#FCBA9C"/>
<path d="M28.5562 24.5348C28.5562 24.5348 27.9249 25.0929 27.5004 25.237C27.2365 25.3257 26.8512 25.3183 26.2555 25.1446H26.2519C25.8988 25.0449 25.4707 24.8821 24.9533 24.6529C23.8011 24.1391 22.4705 22.7348 22.0568 22.2728C21.9712 22.1803 21.9248 22.125 21.9248 22.125C21.9248 22.125 21.9854 22.0953 22.0782 22.0472C22.0782 22.0472 22.0782 22.0472 22.0818 22.0472C22.2959 22.1322 22.6204 22.3393 22.7382 22.4168C22.7666 22.4353 22.7846 22.4465 22.7846 22.4465C22.7846 22.4465 23.6086 23.2855 24.1615 23.8176C24.3862 24.0319 24.5682 24.1946 24.6325 24.2315C24.8571 24.3609 26.4553 25.0853 26.9012 24.93C26.9368 24.9189 26.9762 24.9041 27.019 24.8857C27.0226 24.8857 27.0262 24.882 27.0262 24.882C27.3117 24.7711 27.679 24.5974 27.9145 24.479C27.9681 24.49 28.0215 24.4975 28.0715 24.5012C28.0751 24.5049 28.0751 24.5012 28.0751 24.5012C28.0823 24.5049 28.0893 24.5049 28.0965 24.5049C28.1465 24.5122 28.1963 24.5159 28.2427 24.5196C28.2605 24.5234 28.2783 24.5234 28.2961 24.5234C28.3354 24.5271 28.3782 24.5308 28.4174 24.5308C28.4672 24.5348 28.5134 24.5348 28.5562 24.5348Z" fill="#FCBA9C"/>
<path d="M31.2185 21.541C31.1543 21.8662 30.8048 22.2876 30.8048 22.2876C30.8048 22.2876 30.6691 22.295 30.4231 22.2617C30.4159 22.2617 30.4053 22.2579 30.3981 22.2579C30.3231 22.2505 30.234 22.2358 30.1376 22.2136C30.0306 22.1914 29.9129 22.1618 29.7809 22.1249C29.6027 22.0693 29.4134 22.0065 29.2066 21.9327C29.0247 21.8699 28.8321 21.7997 28.625 21.7221C27.027 21.1308 26.0068 19.8113 25.7321 19.6044C25.4575 19.3973 25.5075 19.0352 25.5075 19.0352C25.5075 19.0352 25.5825 19.0907 25.6965 19.1314C25.8035 19.172 25.9498 19.2016 26.1068 19.1647C26.2887 19.1204 26.4171 18.9133 26.4957 18.7396C26.4423 18.9502 26.3993 19.2497 26.5313 19.4493C26.7526 19.7857 28.4362 21.1015 29.6739 21.5414C30.2802 21.7557 30.6763 21.7853 30.951 21.6966C31.058 21.6593 31.1437 21.6075 31.2185 21.541Z" fill="#FCBA9C"/>
<path d="M31.0506 22.8715C31.015 23.0896 30.8046 23.4517 30.4905 23.5626C30.3871 23.5995 30.1766 23.6032 29.8912 23.5738C29.8411 23.57 29.7913 23.5626 29.7377 23.5553C29.7305 23.5553 29.7199 23.5553 29.7127 23.5516C29.5593 23.5331 29.3846 23.5072 29.199 23.4703C28.6889 23.3706 28.0753 23.2079 27.4332 22.9787C27.3689 22.9565 27.3047 22.9306 27.2405 22.9047C26.6378 22.6238 26.1633 22.3133 25.8244 22.0656C25.8138 22.0545 25.7994 22.0435 25.7888 22.036C25.5391 21.8476 25.3678 21.6961 25.2822 21.6183C24.9325 21.3116 24.3584 21.3891 24.3584 21.3891C24.3584 21.3891 24.3726 21.3447 24.4012 21.2819C24.4618 21.1379 24.5867 20.8939 24.7579 20.7683C25.0076 20.5871 25.3572 20.1732 25.3572 20.1732C25.3572 20.1732 25.3536 20.1991 25.3536 20.2398V20.2694C25.3464 20.469 25.3536 20.9347 25.5071 21.1565C25.7069 21.4374 27.2265 22.4205 27.7508 22.6792C28.2752 22.9379 29.5487 23.1708 29.7483 22.912C29.8768 22.7457 29.9232 22.3981 29.9374 22.1691C30.0088 22.1875 30.073 22.2022 30.1372 22.2134C30.2334 22.2356 30.3227 22.2503 30.3977 22.2578C30.3977 22.2578 30.4013 22.2615 30.4049 22.2615H30.4227C30.6687 22.2947 30.8044 22.2874 30.8044 22.2874C30.8044 22.2874 31.0864 22.6535 31.0506 22.8715Z" fill="#FCBA9C"/>
<path d="M29.891 23.5738C29.891 24.0211 29.6806 24.435 29.2953 24.4719C29.1276 24.4866 28.903 24.5384 28.5569 24.5347C28.5141 24.5347 28.4677 24.5347 28.4179 24.531C28.3786 24.531 28.3358 24.5273 28.2966 24.5235C28.2788 24.5235 28.261 24.5235 28.2432 24.5198C28.1968 24.5161 28.147 24.5123 28.097 24.5051C28.09 24.5051 28.0828 24.5051 28.0756 24.5013C28.0756 24.5013 28.0756 24.5051 28.072 24.5013C28.022 24.4939 27.9685 24.4866 27.9149 24.4792C27.7509 24.457 27.5689 24.4201 27.3692 24.3683C27.2336 24.3351 27.0873 24.2943 26.9339 24.2427C26.7771 24.1946 26.6128 24.1392 26.4346 24.0727C24.9934 23.5369 24.0018 22.502 23.6807 22.1324C23.6843 22.1214 23.6879 22.1102 23.6879 22.0918C23.6915 21.944 23.5845 21.5485 23.6843 21.5151C23.8341 21.4633 24.3086 21.2343 24.3086 21.2343C24.3086 21.2343 24.3122 21.2749 24.3193 21.3377C24.3549 21.6076 24.4727 22.3245 24.733 22.5757C25.0576 22.8862 25.7816 23.4295 25.7816 23.4295C25.7816 23.4295 26.6556 23.9987 27.1764 24.0505C27.7007 24.1023 28.5497 24.3092 28.8494 24.1282C29.0562 24.0026 29.1561 23.6662 29.1989 23.4703C29.3843 23.5072 29.5592 23.5331 29.7126 23.5516C29.7198 23.5553 29.7304 23.5553 29.7376 23.5553C29.7912 23.5628 29.8412 23.57 29.891 23.5738Z" fill="#FCBA9C"/>
<path d="M26.9287 24.1019C26.9287 24.1019 27.0536 24.4638 26.5046 24.593C25.9556 24.7223 24.9578 24.4638 24.6085 24.1535C24.2591 23.8434 23.5605 23.4297 23.5605 23.4297C23.5605 23.4297 24.6085 24.4895 25.6562 24.8256C26.7041 25.1616 27.153 25.2134 27.3777 25.0581C27.6021 24.9031 28.1511 24.4377 28.1511 24.4377L26.9287 24.1019Z" fill="#FCBA9C"/>
<path d="M20.6911 15.6748C19.793 16.3987 18.82 15.9333 19.1943 15.3388C19.5686 14.7443 20.9656 12.6246 20.9656 12.6246C20.9656 12.6246 18.6453 14.3306 18.0465 15.132C17.4478 15.9333 17.7721 16.8122 18.0964 17.4067C18.4207 18.0012 19.718 19.1904 19.718 19.1904L20.8158 19.8884C20.8158 19.8884 19.9675 19.5782 20.0673 18.2599C20.1672 16.9416 21.3895 16.2695 21.5642 15.8042C21.7388 15.3388 20.6911 15.6748 20.6911 15.6748Z" fill="#FCBA9C"/>
<path d="M27.3407 18.3996C26.934 18.1075 26.5559 17.8267 26.2634 17.6124C26.1422 17.5199 26.0352 17.4424 25.9495 17.3796C25.8925 17.339 25.8425 17.3021 25.8069 17.2762C25.3076 16.9176 24.0591 16.6848 23.7594 16.4002C23.6452 16.293 23.4133 16.0306 23.2029 15.7017C22.9496 15.3025 22.7319 14.8073 22.8212 14.3784C22.8532 14.2307 22.921 14.0939 23.0352 13.9682C23.4383 13.5359 23.9734 13.2328 24.4336 13.0258C24.6868 13.0738 24.9579 13.2069 25.3254 13.4729C26.1672 14.0976 26.5525 14.3525 26.87 14.6075C27.1874 14.8624 26.0638 15.4428 25.9567 15.4059C25.8497 15.369 25.4038 16.4889 25.4038 16.4889C25.6429 16.7329 25.8569 16.9731 26.0209 17.2059C26.0281 17.2133 26.0317 17.2171 26.0352 17.2206C26.1314 17.3129 26.6379 17.8045 27.3407 18.3996Z" fill="#FCBA9C"/>
<path d="M16.1252 18.3562L22.202 11.255C22.4793 10.9309 22.4503 10.4305 22.1376 10.1431L21.0491 9.14314C20.7364 8.8558 20.2534 8.88583 19.976 9.20987L13.8994 16.3111C13.6221 16.6353 13.6511 17.1356 13.9638 17.4229L15.0523 18.4229C15.365 18.7105 15.8479 18.6804 16.1252 18.3562Z" fill="white"/>
<path d="M21.7831 9.73979C21.7831 9.74352 21.7795 9.74725 21.7759 9.75078L14.5311 18.2184C14.292 18.4918 13.8819 18.5177 13.6143 18.2738L4.21836 9.63989C3.95089 9.39593 3.92588 8.97081 4.16134 8.69368L9.76532 2.14811L11.4097 0.226247C11.6452 -0.050885 12.0553 -0.0767923 12.323 0.16717L21.7223 8.80104C21.9827 9.04127 22.0113 9.46266 21.7831 9.73979Z" fill="#CCE4EA"/>
<path d="M27.1525 18.5182C26.7782 18.6473 28.2252 20.0175 28.9987 20.612C29.7721 21.2065 30.7202 21.5684 30.8698 21.3875C31.0195 21.2065 29.9217 20.6636 29.2732 20.1466C28.6246 19.6297 27.7263 18.8024 27.5268 18.6473C27.3272 18.4925 27.1525 18.5182 27.1525 18.5182Z" fill="#FCE4D1"/>
<path d="M26.0059 20.328C25.7805 20.5078 26.6047 21.4137 27.1784 21.8273C27.7522 22.2408 28.7003 22.5252 29.3241 22.6027C29.9478 22.6803 29.7482 22.1892 29.2492 22.0599C28.7503 21.9305 27.3531 21.517 26.954 21C26.5546 20.483 26.3302 20.0695 26.0059 20.328Z" fill="#FCE4D1"/>
<path d="M24.8077 21.6204C24.4334 21.853 25.2068 22.9904 26.6288 23.5592C28.0509 24.1278 28.8493 24.1021 28.9989 23.9211C29.1486 23.7401 27.8014 23.3266 26.7785 22.9129C25.7556 22.4993 25.7058 22.1631 25.3565 21.8014C25.0074 21.4395 24.8077 21.6204 24.8077 21.6204Z" fill="#FCE4D1"/>
<path d="M23.5602 22.3699C23.1859 22.5249 24.0842 23.4556 24.4335 23.7398C24.7828 24.0242 25.7059 24.4896 26.0552 24.5153C26.4045 24.5412 26.4543 24.1793 26.105 24.0758C25.7557 23.9724 24.4335 23.197 24.159 22.835C23.8845 22.4733 23.5602 22.3699 23.5602 22.3699Z" fill="#FCE4D1"/>
<path d="M23.467 13.2903C22.6941 13.7831 22.0995 14.399 21.5943 14.6763C21.0889 14.9535 20.9404 14.3684 20.7322 13.9988C20.524 13.6292 20.643 12.8285 21.0294 13.0748C21.4159 13.3213 21.7428 13.506 22.159 13.4444C22.5752 13.3827 23.467 13.2903 23.467 13.2903Z" fill="#FCE4D1"/>
<path d="M21.7831 9.73975C21.7831 9.74348 21.7795 9.74721 21.7759 9.75074L14.5311 18.2184C14.292 18.4918 13.8819 18.5177 13.6143 18.2737L4.21836 9.63985C3.95089 9.39589 3.92588 8.97077 4.16134 8.69364L9.76532 2.14807C9.56907 2.72471 9.24459 3.58574 8.8879 4.12548C8.30655 5.00516 8.35277 10.0391 12.455 12.168C15.4727 13.7277 19.5999 11.4916 21.7831 9.73975Z" fill="#99BEC7"/>
<path d="M28.2929 21.4908C28.2941 21.4906 28.2952 21.4904 28.2962 21.4902C28.2653 21.4727 28.2354 21.4572 28.2041 21.439C28.2335 21.456 28.2638 21.4743 28.2929 21.4908Z" fill="#D19C7C"/>
<path d="M26.0205 19.748C26.0205 19.748 26.0135 19.7407 26.0031 19.7263L26.0029 19.7265C26.0105 19.7357 26.0205 19.748 26.0205 19.748Z" fill="#D19C7C"/>
<path d="M26.0215 19.7484C26.1662 19.8895 26.3081 20.0202 26.4488 20.1463C26.3083 20.0204 26.166 19.8891 26.0215 19.7484Z" fill="#D19C7C"/>
<path d="M28.1251 21.3927C27.8879 21.2517 27.6394 21.0894 27.3799 20.901C27.6392 21.089 27.8879 21.2519 28.1251 21.3927Z" fill="#D19C7C"/>
<path d="M31.8249 19.4972C31.4576 19.8668 30.9795 20.255 30.4408 20.5912C30.1519 20.425 29.713 20.1514 29.0532 19.7041C29.0176 19.6819 28.9818 19.656 28.9426 19.6301C28.6573 19.4342 28.3754 19.2234 28.1044 19.0203C27.8405 18.8097 27.5872 18.6064 27.3554 18.4105C27.3518 18.4105 27.3446 18.4068 27.3412 18.3995C26.6384 17.8044 26.1319 17.313 26.0357 17.2205C26.0321 17.2168 26.0285 17.2131 26.0214 17.2058C25.8574 16.973 25.6434 16.7328 25.4043 16.4888C25.4043 16.4888 25.4185 16.4519 25.4435 16.3891C25.5113 16.2302 25.6434 15.9124 25.7574 15.6831C25.8466 15.5169 25.9214 15.3948 25.9572 15.406C26.0643 15.4429 27.1879 14.8627 26.8705 14.6076C26.7314 14.4967 26.578 14.3821 26.3817 14.2417C26.9989 13.924 27.6016 13.6726 28.1012 13.5507C28.2652 13.5101 28.4186 13.4842 28.5577 13.473C28.5577 13.473 28.6967 13.4471 28.893 13.4176C29.2925 13.3621 29.9382 13.303 30.1735 13.473C30.5266 13.7279 32.9488 15.6241 33.2662 16.4888C33.5835 17.3536 32.8807 18.4291 31.8249 19.4972Z" fill="#D19C7C"/>
<path d="M27.3373 20.8707C27.0731 20.6768 26.7982 20.456 26.5146 20.2059C26.7984 20.4564 27.0731 20.6768 27.3373 20.8707Z" fill="#D19C7C"/>
<path d="M31.8238 19.4971C31.4565 19.8667 30.9784 20.2549 30.4397 20.5911C30.1508 20.4249 29.7119 20.1513 29.0521 19.704C29.0165 19.6818 28.9807 19.6559 28.9415 19.63C28.6562 19.4341 28.3743 19.2233 28.1033 19.0202C28.0855 18.754 28.1247 18.5693 28.1247 18.5693C28.1247 18.5693 30.2472 19.8888 30.7965 19.3454C31.3423 18.8021 32.1413 17.4308 31.7168 17.0465C31.2923 16.6585 30.297 16.7878 30.2222 16.1409C30.1472 15.494 29.2734 14.1747 28.8739 13.5537C28.8739 13.5537 28.8811 13.5019 28.8917 13.4169C29.2912 13.3613 29.9369 13.3023 30.1722 13.4722C30.5253 13.7272 32.9475 15.6233 33.2649 16.4881C33.5824 17.3534 32.8796 18.429 31.8238 19.4971Z" fill="#9E6F55"/>
<path d="M28.8674 15.0101C28.8174 15.424 28.6784 15.7308 28.5249 15.9488C28.3037 16.2703 28.0612 16.4034 28.0612 16.4034C27.387 16.847 26.0921 16.5696 25.443 16.3887C25.2039 16.3184 25.0541 16.2666 25.0541 16.2666C25.0541 16.2666 24.0696 16.7139 23.324 16.455C23.324 16.455 22.8495 17.2016 22.0899 17.246C21.3301 17.2941 21.1481 17.0242 21.1481 17.0242C21.1481 17.0242 21.0019 16.7655 21.0339 16.5734C21.0411 16.5031 21.0767 16.4403 21.1481 16.4034C21.4192 16.2629 22.1005 15.8452 22.2932 15.2798C22.2932 15.2798 23.185 14.7437 23.6415 14.1746C23.6415 14.1746 25.2859 13.5795 26.7591 13.3911C27.3084 13.3208 27.7579 13.3836 28.1004 13.55C28.6748 13.8201 28.9422 14.3671 28.8674 15.0101Z" fill="#D19C7C"/>
<path d="M19.4538 20.6208C19.0935 21.0126 18.8759 21.3378 18.8759 21.3378C18.8759 21.3378 18.5834 21.6371 18.3622 21.5225C18.0483 21.3598 17.6702 20.5504 17.6488 20.2732C17.6452 20.2067 17.6702 20.1142 17.7202 20.0108C17.8414 19.7447 18.1055 19.3973 18.3587 19.2051C18.4338 19.1461 18.5086 19.1054 18.5764 19.0795C18.9795 18.9355 19.297 19.3753 19.297 19.3753L19.6109 19.719C19.6109 19.719 19.9675 20.0664 19.4538 20.6208Z" fill="#D19C7C"/>
<path d="M21.7512 21.3821C21.5728 21.8663 21.3481 22.7903 21.2589 22.9528C21.1697 23.1155 20.5669 23.1377 20.0782 22.7679C20.0782 22.7679 19.5361 22.4871 19.5931 21.9252C19.5931 21.8845 19.6003 21.8439 19.6109 21.7995C19.7001 21.4372 19.8569 21.101 19.9962 20.8496C20.1032 20.6537 20.196 20.5059 20.2352 20.4357C20.3244 20.273 20.4813 20.1807 20.7918 20.2288C21.102 20.2732 21.5729 20.7573 21.6836 20.8276C21.794 20.8979 21.9296 20.8979 21.7512 21.3821Z" fill="#D19C7C"/>
<path d="M23.2209 22.0771C23.1567 22.3764 22.8 23.6478 22.8 23.6478C22.8 23.6478 22.643 23.9471 22.1509 23.7846C21.6621 23.6256 21.2162 23.3448 21.1484 23.256C21.0948 23.1821 21.0592 23.0823 21.102 22.8937C21.1056 22.89 21.1056 22.8827 21.1092 22.879C21.1198 22.8272 21.1412 22.7681 21.1698 22.7016C21.2412 22.5316 21.3339 22.1952 21.4159 21.8847C21.4907 21.6001 21.5515 21.334 21.5729 21.2453C21.6157 21.0604 21.6621 20.9201 22.1295 21.0125C22.5968 21.1049 22.8642 21.2675 23.0891 21.3821C23.3102 21.4967 23.2887 21.7776 23.2209 22.0771Z" fill="#D19C7C"/>
<path d="M24.4691 24.6162C24.2693 24.7568 24.1588 24.7568 23.5131 24.4794C22.8639 24.2023 22.8211 23.9472 22.8211 23.9472C22.8103 23.9213 22.8033 23.8881 22.7997 23.8547V23.851C22.7533 23.5332 22.9601 22.9972 23.0208 22.5611C23.0422 22.4021 23.0778 22.2728 23.1206 22.1694C23.2062 21.9513 23.3238 21.8514 23.4453 21.8663C23.6237 21.8922 24.18 22.0068 24.3585 22.0512C24.5155 22.0956 24.7366 22.2359 24.783 22.7016C24.8258 23.1599 24.6688 24.4794 24.4691 24.6162Z" fill="#D19C7C"/>
<path d="M34.3367 19.574L28.048 12.2249C27.7477 11.8739 27.7792 11.3324 28.1177 11.0213L29.2052 10.0223C29.5439 9.71125 30.0665 9.74383 30.3667 10.0946L36.6555 17.4437C36.9557 17.7946 36.9243 18.3361 36.5858 18.6472L35.4983 19.6462C35.1596 19.9575 34.637 19.9249 34.3367 19.574Z" fill="white"/>
<path d="M46.7813 10.5011L36.9503 19.5305C36.6863 19.7745 36.2725 19.7523 36.0371 19.4749L28.4534 10.612C28.2144 10.3349 28.2394 9.90606 28.507 9.6621L28.8281 9.36632L38.338 0.632746C38.6019 0.388784 39.0158 0.414692 39.2513 0.691823L43.2751 5.39305L46.8351 9.55101C47.0738 9.82853 47.049 10.2572 46.7813 10.5011Z" fill="#456F79"/>
<path d="M46.7813 10.5011L36.9503 19.5304C36.6863 19.7744 36.2725 19.7522 36.0371 19.4749L28.4534 10.612C28.2144 10.3348 28.2394 9.906 28.507 9.66204L28.8281 9.36626C29.8912 11.1737 33.9398 14.3558 38.6235 11.9794C42.5367 9.99098 42.8506 6.99729 43.2751 5.39319L46.8351 9.55114C47.0738 9.82847 47.049 10.2571 46.7813 10.5011Z" fill="#1F5A68"/>
<path d="M29.0529 19.7041C29.0172 19.682 28.9814 19.6561 28.9422 19.6301C28.3715 19.2384 27.8186 18.8023 27.3548 18.4105C27.3512 18.4105 27.344 18.4068 27.3406 18.3995C26.6379 17.8045 26.1313 17.313 26.0351 17.2206C26.0315 17.2168 26.0279 17.2131 26.0209 17.2058C25.8569 16.9731 25.6428 16.7328 25.4037 16.4889C25.4037 16.4889 25.418 16.452 25.443 16.3892C25.2039 16.3189 25.0541 16.2671 25.0541 16.2671C25.0541 16.2671 24.0696 16.7144 23.324 16.4555C23.324 16.4555 22.8495 17.2021 22.0899 17.2465C21.3301 17.2945 21.1481 17.0247 21.1481 17.0247C21.1481 17.0247 21.0019 16.766 21.0339 16.5739C21.1979 16.6478 21.8401 16.8991 22.3144 16.6072C22.8601 16.2708 22.7853 15.65 22.7853 15.65C22.7853 15.65 23.2098 15.7275 23.6093 15.6241C24.0088 15.5207 24.708 14.9256 24.708 14.9256C24.708 14.9256 25.2287 15.4023 25.7566 15.6832C26.0741 15.8494 26.3916 15.9456 26.6057 15.831C27.1764 15.5205 28.3999 14.7701 28.3999 14.7701C28.3999 14.7701 28.5069 15.3356 28.5247 15.9491C28.5425 16.4074 28.5105 16.8916 28.3499 17.1984C28.0006 17.8783 28.4607 19.0094 29.0529 19.7041Z" fill="#9E6F55"/>
<path d="M19.4538 20.6207C19.0935 21.0125 18.8759 21.3377 18.8759 21.3377C18.8759 21.3377 18.5834 21.637 18.3622 21.5224C18.0483 21.3597 17.6702 20.5503 17.6488 20.2732C17.6452 20.2066 17.6702 20.1142 17.7202 20.0107C17.9342 20.3397 18.1981 21.005 18.3231 20.8979C18.473 20.7685 18.9937 20.3287 18.9937 20.0959C18.9937 19.9222 18.7582 19.5342 18.3587 19.2053C18.4338 19.1462 18.5086 19.1055 18.5764 19.0796C18.9795 18.9356 19.297 19.3754 19.297 19.3754L19.6109 19.7191C19.6109 19.7191 19.9675 20.0663 19.4538 20.6207Z" fill="#9E6F55"/>
<path d="M21.7512 21.3821C21.5728 21.8663 21.3481 22.7903 21.2589 22.9528C21.1697 23.1155 20.5669 23.1377 20.0782 22.7679C20.0782 22.7679 19.5361 22.4871 19.5931 21.9252C19.7001 21.962 19.8107 22.0286 19.8677 22.1098C20.0176 22.3169 20.5169 22.5756 20.6667 22.3169C20.8166 22.0582 20.9914 21.489 20.8914 21.3634C20.8022 21.2451 20.2778 20.9568 19.996 20.8496C20.103 20.6537 20.1958 20.5059 20.235 20.4357C20.3243 20.273 20.4811 20.1807 20.7916 20.2288C21.1018 20.2732 21.5728 20.7573 21.6834 20.8276C21.794 20.8979 21.9296 20.8979 21.7512 21.3821Z" fill="#9E6F55"/>
<path d="M23.2209 22.0771C23.1567 22.3764 22.8 23.6478 22.8 23.6478C22.8 23.6478 22.643 23.9471 22.1509 23.7846C21.6621 23.6256 21.2162 23.3448 21.1484 23.256C21.0948 23.1821 21.0592 23.0823 21.102 22.8937C21.1056 22.89 21.1056 22.8827 21.1092 22.879C21.127 22.8347 21.1412 22.8088 21.1412 22.8088C21.1412 22.8088 21.9152 23.2227 22.2149 23.2227C22.5146 23.2227 22.5894 22.5501 22.5644 22.343C22.5394 22.1471 21.8688 21.7885 21.4157 21.8847C21.4905 21.6001 21.5513 21.334 21.5727 21.2453C21.6155 21.0604 21.662 20.9201 22.1293 21.0125C22.5966 21.1049 22.8641 21.2675 23.0889 21.3821C23.3102 21.4967 23.2887 21.7776 23.2209 22.0771Z" fill="#9E6F55"/>
<path d="M24.4692 24.6162C24.2694 24.7568 24.1589 24.7568 23.5132 24.4794C22.864 24.2023 22.8212 23.9472 22.8212 23.9472C22.8104 23.9213 22.8034 23.8881 22.7998 23.8547C23.3741 24.154 23.8949 24.1727 24.1589 23.9731C24.4336 23.7662 24.4586 22.99 24.4836 22.6795C24.5086 22.369 24.4586 22.1362 24.0591 22.1103C23.7702 22.0918 23.3385 22.1399 23.1211 22.1694C23.2067 21.9513 23.3243 21.8514 23.4457 21.8663C23.6242 21.8922 24.1805 22.0068 24.359 22.0512C24.516 22.0956 24.7371 22.2359 24.7835 22.7016C24.8259 23.1599 24.6689 24.4794 24.4692 24.6162Z" fill="#9E6F55"/>
<path d="M27.0932 13.9064C27.1527 14.5531 25.4286 14.2143 25.0124 14.2451C24.5962 14.2759 24.2098 14.8918 23.6152 15.0459C23.0206 15.2 22.5154 15.9391 22.1882 16.2471C21.8613 16.555 21.3559 16.3703 21.5938 16.1854C21.8316 16.0005 22.5749 15.4463 22.6936 15.1998C22.8124 14.9533 23.6449 14.5222 24.0016 14.3374C24.3583 14.1525 24.9827 13.7829 25.6068 13.7213C26.231 13.6596 27.004 13.475 27.0931 13.5366C27.1825 13.5984 27.0932 13.9064 27.0932 13.9064Z" fill="#EBC3AE"/>
<path d="M29.5903 17.4176C29.0809 17.7499 29.3228 18.6188 29.7092 18.7729C30.0957 18.927 30.928 18.6804 30.928 18.2184C30.928 17.7564 30.3929 16.894 29.5903 17.4176Z" fill="#EBC3AE"/>
<path d="M23.1688 22.4379C23.3473 22.1608 23.9417 22.253 24.0607 22.6226C24.1796 22.9922 24.0012 23.8546 23.6742 23.947C23.3473 24.0395 22.7563 23.9643 22.7991 23.6477C22.8419 23.3311 23.1688 22.4379 23.1688 22.4379Z" fill="#EBC3AE"/>
<path d="M21.6529 21.8218C21.5339 22.1913 21.2962 22.6225 21.4449 22.8382C21.5936 23.0537 21.9205 23.2078 22.0691 22.8382C22.2178 22.4687 22.2772 21.945 22.1583 21.8526C22.0393 21.7601 21.6529 21.8218 21.6529 21.8218Z" fill="#EBC3AE"/>
<path d="M20.1672 20.8673C19.8105 21.2369 19.5133 21.8838 19.632 22.0685C19.751 22.2532 19.9887 22.5921 20.1969 22.3456C20.4051 22.0993 20.732 21.4216 20.732 21.1753C20.732 20.9287 20.1672 20.8673 20.1672 20.8673Z" fill="#EBC3AE"/>
<path d="M18.3582 19.2052C18.086 19.5736 17.7399 19.6782 17.7196 20.0109C17.6994 20.3436 17.8481 20.5282 18.0263 20.6207C18.2047 20.7131 18.7099 20.0354 18.7694 19.7891C18.8291 19.5428 18.3582 19.2052 18.3582 19.2052Z" fill="#EBC3AE"/>
<path d="M37.557 2.51037C35.7569 3.71723 30.7348 8.42395 30.4226 9.07066C30.1104 9.71756 30.1104 11.3344 31.8941 10.5953C33.6777 9.85613 38.5378 4.95883 39.4296 3.98867C40.3215 3.01851 39.073 1.4939 37.557 2.51037Z" fill="#7FA0A7"/>
<path d="M11.7841 1.03177C10.6614 1.57465 9.28711 3.01841 11.7841 5.09729C14.2811 7.17636 18.2941 10.595 19.0967 10.7799C19.8993 10.9646 21.0141 9.71726 20.7464 9.07036C20.479 8.42365 13.4338 1.95561 12.9434 1.67848C12.453 1.40155 12.453 0.70852 11.7841 1.03177Z" fill="#E8F6F9"/>
<path d="M43.3637 22.7388C43.3637 22.7388 29.4018 25.3418 24.656 25.3418C19.9108 25.3418 5.94824 22.7388 5.94824 22.7388V28.3624L10.5398 29.6744C16.0178 31.2398 20.2124 36.3798 21.4475 42.0977L22.5452 47.1749H26.9097L28.0181 42.047C29.2554 36.3242 33.4568 31.182 38.9415 29.621L43.3637 28.3624V22.7388Z" fill="#526FA3"/>
<path opacity="0.3" d="M6.52637 27.8129V27.9373L10.7014 29.1304C16.1423 30.6853 20.6885 35.8496 22.0133 41.9805L23.0134 46.6083H26.4417L27.4537 41.9298C28.7801 35.7928 33.3325 30.6274 38.7812 29.0764L42.7864 27.9368V27.8129C30.5713 31.6817 18.4841 31.7021 6.52637 27.8129Z" fill="#1D155B"/>
<path d="M24.6565 49.0202C13.2667 49.0202 4 39.916 4 28.726C4 17.5354 13.2667 8.43127 24.6565 8.43127C36.0463 8.43127 45.313 17.5354 45.313 28.726C45.313 39.9166 36.0463 49.0202 24.6565 49.0202ZM24.6565 12.1216C15.3371 12.1216 7.75567 19.5706 7.75567 28.726C7.75567 37.8819 15.3371 45.3304 24.6565 45.3304C33.9753 45.3304 41.5573 37.8819 41.5573 28.726C41.5573 19.5706 33.9753 12.1216 24.6565 12.1216Z" fill="#351CC1"/>
<path opacity="0.5" d="M44.754 25.4912C44.1098 32.7199 40.2493 38.9191 34.7523 42.382C31.9149 44.4122 28.4267 45.6141 24.6559 45.6141C20.8851 45.6141 17.3968 44.4122 14.5594 42.382C9.06243 38.9186 5.20248 32.7199 4.55832 25.4912C4.38284 26.5449 4.28809 27.6245 4.28809 28.7261C4.28809 39.7602 13.4253 48.7366 24.6559 48.7366C35.887 48.7366 45.0237 39.7602 45.0237 28.7261C45.0242 27.6245 44.9289 26.5449 44.754 25.4912Z" fill="#1D155B"/>
<path opacity="0.2" d="M24.6566 9.53504C30.2881 9.53504 35.4274 11.503 39.3014 14.7291C35.5951 10.9572 30.4019 8.60474 24.6566 8.60474C18.9112 8.60474 13.7181 10.9572 10.0117 14.7291C13.8857 11.503 19.025 9.53504 24.6566 9.53504Z" fill="white"/>
<path d="M15.2014 29.277C14.6893 30.6018 13.2782 31.2329 11.6813 30.8163C9.72528 30.306 8.86251 28.6226 9.43932 26.4114C10.0186 24.1908 11.5925 23.1481 13.5438 23.6571C15.1219 24.0688 16.0642 25.3894 15.8423 26.8202L14.6422 26.5071C14.6792 25.669 14.1439 24.9743 13.2604 24.7438C12.2115 24.4702 11.2916 25.0174 10.8617 26.1819L13.6634 26.9128L13.4009 27.9192L10.585 27.1846C10.3434 28.4588 10.8781 29.4461 11.9648 29.7296C12.8577 29.9625 13.6496 29.6544 14.0061 28.9652L15.2014 29.277Z" fill="white"/>
<path d="M18.7667 31.9284L15.775 31.5735L16.6051 24.5766L19.529 24.9235C20.8575 25.0812 21.5782 25.8452 21.4505 26.9217C21.3631 27.6587 20.7429 28.244 20.0266 28.2721L20.0162 28.3594C20.9465 28.5583 21.5157 29.3142 21.4076 30.2258C21.262 31.4525 20.2602 32.1056 18.7667 31.9284ZM17.7382 25.7191L17.5069 27.6683L18.7143 27.8115C19.6016 27.9168 20.1128 27.6284 20.1876 26.998C20.2607 26.3822 19.862 25.971 19.1056 25.8813L17.7382 25.7191ZM17.1439 30.7279L18.5986 30.9005C19.5198 31.0098 20.0544 30.6897 20.139 29.9769C20.2219 29.2787 19.7613 28.8503 18.8061 28.737L17.3999 28.5702L17.1439 30.7279Z" fill="white"/>
<path d="M22.1305 32.1924L22.302 26.8533L23.5075 26.892L23.336 32.2311L22.1305 32.1924ZM22.9302 26.0039C22.491 25.9898 22.1926 25.6969 22.205 25.3113C22.2174 24.9258 22.534 24.6526 22.9732 24.6667C23.4173 24.681 23.7108 24.9738 23.6984 25.3593C23.686 25.7448 23.3743 26.0182 22.9302 26.0039Z" fill="white"/>
<path d="M26.0981 29.9258L25.8542 29.9373L25.9624 32.2297L24.7528 32.2868L24.5009 26.951L25.7105 26.8939L25.8114 29.0301L26.0455 29.0191L27.7346 26.7983L29.1296 26.7325L27.0559 29.2989L29.4839 32.0635L28.0158 32.1328L26.0981 29.9258Z" fill="white"/>
<path d="M33.8505 31.4049L33.5023 29.1662L31.2201 29.5212L31.5683 31.7599L30.3718 31.946L29.5508 26.6677L30.7473 26.4816L31.0715 28.5659L33.3537 28.2109L33.0295 26.1266L34.226 25.9405L35.047 31.2188L33.8505 31.4049Z" fill="white"/>
<path d="M38.0624 30.5179C36.5163 30.9357 35.3104 30.1792 34.8582 28.5058C34.4085 26.8419 35.0808 25.5677 36.6128 25.1537C38.1495 24.7384 39.3661 25.4971 39.817 27.1658C40.2692 28.8392 39.6038 30.1014 38.0624 30.5179ZM37.7974 29.5375C38.6129 29.3171 38.9067 28.5701 38.615 27.4906C38.3246 26.4159 37.6885 25.9151 36.8778 26.1342C36.0623 26.3545 35.765 27.1076 36.0554 28.1823C36.3471 29.2617 36.9819 29.7578 37.7974 29.5375Z" fill="white"/>
</svg>
